<?xml version="1.0" encoding="utf-8"?>
<!-- Generator: Adobe Illustrator 25.3.1, SVG Export Plug-In . SVG Version: 6.00 Build 0)  -->
<svg version="1.1" id="Layer_1" xmlns="http://www.w3.org/2000/svg" xmlns:xlink="http://www.w3.org/1999/xlink" x="0px" y="0px"
	 width="2000px" height="2000px" viewBox="0 0 2000 2000" style="enable-background:new 0 0 2000 2000;" xml:space="preserve">
<style type="text/css">
	.st0{fill:none;stroke:#CE93D8;stroke-width:31;stroke-miterlimit:5;}
</style>
<line class="st0" x1="945.1" y1="867.6" x2="945.1" y2="350.9"/>
<line class="st0" x1="1054.9" y1="350.9" x2="1054.9" y2="867.6"/>
<path class="st0" d="M1054.1,239.3c53.2,8,103.1,27.8,146.5,58.4c53.9,38,96,90.9,121.7,153c25.7,62.1,33.4,129.3,22.1,194.2
	c-12.1,69.8-45.9,134.1-97.8,186L1077.6,1000l671.1,671.1l-77.6,77.6L1000,1077.6l-671.1,671.1l-77.6-77.6L922.4,1000L753.3,830.9
	c-51.9-51.9-85.7-116.2-97.8-186c-11.3-64.9-3.6-132.1,22.1-194.2c25.7-62.1,67.8-115,121.7-153c43.3-30.5,92.9-50.2,145.8-58.3
	 M945.1,350.9C859,370.1,803.7,433.1,779,492.6C749.5,564,747.6,670,830.9,753.3L1000,922.4l169.1-169.1
	c83.3-83.3,81.4-189.3,51.8-260.7c-24.7-59.6-80-122.5-166.1-141.8"/>
<path class="st0" d="M1054.9,350.9"/>
<polyline class="st0" points="945.1,350.9 945.1,40.9 1054.9,40.9 1054.9,350.9 "/>
<polyline class="st0" points="1054.9,1132.4 1054.9,1959.1 945.1,1959.1 945.1,1132.4 "/>
</svg>
